<?xml version="1.0" encoding="UTF-8"?>
<svg width="32px" height="32px" viewBox="0 0 32 32" version="1.1" xmlns="http://www.w3.org/2000/svg">
    <title>Flower Icon</title>
    <g stroke="none" stroke-width="1" fill="none" fill-rule="evenodd">
        <circle fill="#4CAF50" cx="16" cy="16" r="16"/>
        <path d="M16,8 C18.5,8 20,9.5 20,12 C20,14.5 18.5,16 16,16 C13.5,16 12,14.5 12,12 C12,9.5 13.5,8 16,8 Z" fill="#FFFFFF"/>
        <path d="M16,16 C18.5,16 20,17.5 20,20 C20,22.5 18.5,24 16,24 C13.5,24 12,22.5 12,20 C12,17.5 13.5,16 16,16 Z" fill="#FFFFFF"/>
        <path d="M8,16 C8,18.5 9.5,20 12,20 C14.5,20 16,18.5 16,16 C16,13.5 14.5,12 12,12 C9.5,12 8,13.5 8,16 Z" fill="#FFFFFF"/>
        <path d="M16,16 C18.5,16 20,14.5 20,12 C20,9.5 18.5,8 16,8 C13.5,8 12,9.5 12,12 C12,14.5 13.5,16 16,16 Z" fill="#FFFFFF"/>
    </g>
</svg>